<svg width="22" height="9" viewBox="0 0 22 9" fill="none" xmlns="http://www.w3.org/2000/svg">
<path d="M6.664 8.276C6.464 8.276 6.26 8.212 6.052 8.084C5.852 7.964 5.648 7.768 5.44 7.496C5.184 7.144 4.968 6.808 4.792 6.488C4.616 6.168 4.472 5.888 4.36 5.648C4.256 5.408 4.176 5.236 4.12 5.132C4.12 5.132 4.14 5.108 4.18 5.06C4.22 5.004 4.268 4.952 4.324 4.904C4.388 4.848 4.44 4.82 4.48 4.82C4.856 4.82 5.192 4.816 5.488 4.808C5.792 4.792 6.06 4.744 6.292 4.664C6.532 4.576 6.744 4.428 6.928 4.22C7.112 4.012 7.268 3.716 7.396 3.332C7.436 3.236 7.46 3.14 7.468 3.044C7.484 2.94 7.492 2.84 7.492 2.744C7.492 2.472 7.424 2.232 7.288 2.024C7.152 1.816 6.956 1.696 6.7 1.664C6.668 1.656 6.632 1.652 6.592 1.652C6.552 1.652 6.512 1.652 6.472 1.652C6.32 1.652 6.152 1.672 5.968 1.712C5.792 1.752 5.66 1.828 5.572 1.94C5.372 2.204 5.18 2.504 4.996 2.84C4.812 3.168 4.636 3.504 4.468 3.848C4.3 4.184 4.14 4.5 3.988 4.796C3.948 4.876 3.872 5.02 3.76 5.228C3.648 5.428 3.524 5.66 3.388 5.924C3.252 6.18 3.124 6.436 3.004 6.692C2.884 6.948 2.788 7.176 2.716 7.376C2.652 7.576 2.636 7.712 2.668 7.784C2.676 7.792 2.68 7.804 2.68 7.82C2.68 7.844 2.668 7.856 2.644 7.856C2.58 7.856 2.516 7.84 2.452 7.808C2.388 7.776 2.312 7.76 2.224 7.76C2.144 7.76 2.064 7.78 1.984 7.82C1.904 7.852 1.8 7.912 1.672 8C1.544 8.088 1.4 8.16 1.24 8.216C1.224 8.224 1.2 8.228 1.168 8.228C1.112 8.228 1.068 8.212 1.036 8.18C1.004 8.156 1.004 8.136 1.036 8.12C1.212 8.088 1.364 8.024 1.492 7.928C1.62 7.824 1.724 7.696 1.804 7.544C1.972 7.264 2.136 6.984 2.296 6.704C2.464 6.416 2.624 6.128 2.776 5.84C2.96 5.488 3.148 5.136 3.34 4.784C3.532 4.424 3.724 4.068 3.916 3.716C4.1 3.388 4.264 3.072 4.408 2.768C4.552 2.464 4.66 2.244 4.732 2.108C4.788 2.004 4.884 1.912 5.02 1.832C5.164 1.744 5.304 1.676 5.44 1.628C5.392 1.628 5.344 1.628 5.296 1.628C5.248 1.62 5.196 1.616 5.14 1.616C4.892 1.616 4.62 1.632 4.324 1.664C4.036 1.688 3.752 1.728 3.472 1.784C3.2 1.84 2.96 1.916 2.752 2.012C2.544 2.108 2.404 2.224 2.332 2.36C2.3 2.432 2.272 2.504 2.248 2.576C2.224 2.648 2.212 2.72 2.212 2.792C2.212 2.976 2.276 3.108 2.404 3.188C2.412 3.188 2.416 3.196 2.416 3.212C2.416 3.228 2.4 3.244 2.368 3.26C2.344 3.276 2.324 3.28 2.308 3.272C2.228 3.232 2.136 3.136 2.032 2.984C1.936 2.824 1.872 2.692 1.84 2.588C1.816 2.492 1.804 2.404 1.804 2.324C1.804 2.116 1.872 1.956 2.008 1.844C2.144 1.724 2.316 1.64 2.524 1.592C2.732 1.536 2.944 1.504 3.16 1.496C3.384 1.48 3.58 1.472 3.748 1.472C4.004 1.472 4.308 1.472 4.66 1.472C5.012 1.464 5.336 1.46 5.632 1.46C5.704 1.46 5.784 1.46 5.872 1.46C5.96 1.452 6.052 1.448 6.148 1.448C6.364 1.448 6.588 1.46 6.82 1.484C7.052 1.508 7.264 1.56 7.456 1.64C7.648 1.72 7.796 1.844 7.9 2.012C8.036 2.236 8.104 2.492 8.104 2.78C8.104 3.22 7.988 3.588 7.756 3.884C7.676 3.988 7.588 4.088 7.492 4.184C7.396 4.28 7.284 4.372 7.156 4.46C6.948 4.604 6.7 4.728 6.412 4.832C6.124 4.928 5.824 5 5.512 5.048C5.208 5.096 4.928 5.128 4.672 5.144C4.776 5.368 4.932 5.668 5.14 6.044C5.356 6.42 5.616 6.796 5.92 7.172C6.08 7.372 6.244 7.512 6.412 7.592C6.58 7.672 6.744 7.712 6.904 7.712C7.16 7.712 7.4 7.636 7.624 7.484C7.856 7.332 8.064 7.156 8.248 6.956C8.44 6.748 8.592 6.568 8.704 6.416C8.728 6.376 8.748 6.356 8.764 6.356C8.788 6.356 8.8 6.38 8.8 6.428C8.8 6.492 8.776 6.556 8.728 6.62C8.36 7.124 8.008 7.528 7.672 7.832C7.336 8.128 7 8.276 6.664 8.276ZM10.2588 8.036C10.1788 8.036 10.1108 8.02 10.0548 7.988C9.99875 7.956 9.97075 7.896 9.97075 7.808C9.97075 7.696 9.99875 7.568 10.0548 7.424C10.1108 7.28 10.1748 7.14 10.2468 7.004C10.3188 6.86 10.3828 6.744 10.4388 6.656C10.1588 6.952 9.86675 7.232 9.56275 7.496C9.41075 7.624 9.24275 7.744 9.05875 7.856C8.87475 7.968 8.67875 8.024 8.47075 8.024C8.39075 8.024 8.33475 8 8.30275 7.952C8.27075 7.896 8.25475 7.832 8.25475 7.76C8.25475 7.72 8.25875 7.692 8.26675 7.676C8.30675 7.364 8.40675 7.04 8.56675 6.704C8.72675 6.368 8.92275 6.052 9.15475 5.756C9.38675 5.46 9.62275 5.22 9.86275 5.036C10.1348 4.828 10.4348 4.724 10.7628 4.724H12.1428C12.1828 4.724 12.2028 4.74 12.2028 4.772C12.2028 4.836 12.1668 4.868 12.0948 4.868C12.0148 4.868 11.9348 4.92 11.8548 5.024C11.7748 5.12 11.7148 5.2 11.6748 5.264C11.6188 5.352 11.5308 5.5 11.4108 5.708C11.2908 5.916 11.1668 6.144 11.0388 6.392C10.9188 6.632 10.8148 6.856 10.7268 7.064C10.6388 7.272 10.5948 7.424 10.5948 7.52C10.5948 7.632 10.6508 7.688 10.7628 7.688C10.8828 7.688 11.0188 7.632 11.1708 7.52C11.3228 7.408 11.4748 7.272 11.6268 7.112C11.7868 6.944 11.9308 6.78 12.0588 6.62C12.1948 6.452 12.3028 6.32 12.3828 6.224C12.4308 6.272 12.4268 6.34 12.3708 6.428C12.3228 6.508 12.2788 6.572 12.2388 6.62C12.0788 6.828 11.8948 7.044 11.6868 7.268C11.4788 7.484 11.2508 7.668 11.0028 7.82C10.7628 7.964 10.5148 8.036 10.2588 8.036ZM8.96275 7.616C9.05875 7.616 9.19075 7.548 9.35875 7.412C9.53475 7.268 9.72275 7.092 9.92275 6.884C10.1228 6.668 10.3108 6.444 10.4868 6.212C10.6628 5.972 10.8068 5.756 10.9188 5.564C11.0388 5.364 11.0988 5.212 11.0988 5.108C11.0988 5.02 11.0708 4.96 11.0148 4.928C10.9668 4.896 10.9028 4.88 10.8228 4.88C10.6948 4.88 10.5548 4.928 10.4028 5.024C10.2588 5.112 10.1428 5.2 10.0548 5.288C9.95875 5.376 9.84275 5.516 9.70675 5.708C9.57875 5.892 9.45075 6.096 9.32275 6.32C9.19475 6.544 9.08675 6.76 8.99875 6.968C8.91075 7.176 8.86675 7.344 8.86675 7.472C8.86675 7.568 8.89875 7.616 8.96275 7.616ZM12.6581 8.108C12.5541 8.108 12.4301 8.088 12.2861 8.048C12.1421 8.016 12.0701 7.928 12.0701 7.784C12.0701 7.728 12.0821 7.664 12.1061 7.592C12.1301 7.52 12.1541 7.456 12.1781 7.4C12.2581 7.192 12.3421 6.98 12.4301 6.764C12.5181 6.548 12.6101 6.328 12.7061 6.104C12.6021 6.224 12.5021 6.336 12.4061 6.44C12.3181 6.536 12.2541 6.608 12.2141 6.656C12.1901 6.688 12.1701 6.704 12.1541 6.704C12.1381 6.704 12.1301 6.684 12.1301 6.644C12.1301 6.58 12.1501 6.52 12.1901 6.464C12.3021 6.32 12.4301 6.168 12.5741 6.008C12.7181 5.848 12.8581 5.68 12.9941 5.504C13.3301 4.8 13.7061 4.12 14.1221 3.464C14.5381 2.8 15.0061 2.212 15.5261 1.7C15.6861 1.548 15.8661 1.392 16.0661 1.232C16.2661 1.072 16.4781 0.935999 16.7021 0.823999C16.9341 0.711999 17.1621 0.655999 17.3861 0.655999C17.5061 0.655999 17.6141 0.687999 17.7101 0.752C17.8141 0.816 17.8701 0.916 17.8781 1.052V1.4C17.8781 1.432 17.8541 1.448 17.8061 1.448C17.7821 1.448 17.7701 1.44 17.7701 1.424C17.7701 1.296 17.7141 1.212 17.6021 1.172C17.4901 1.124 17.3781 1.1 17.2661 1.1C16.8261 1.1 16.4301 1.216 16.0781 1.448C15.7261 1.672 15.4141 1.968 15.1421 2.336C14.8701 2.696 14.6261 3.096 14.4101 3.536C14.1941 3.968 13.9981 4.396 13.8221 4.82C13.6541 5.236 13.4941 5.608 13.3421 5.936C13.3421 5.936 13.3421 5.944 13.3421 5.96C13.3421 5.976 13.3461 5.984 13.3541 5.984C13.3621 5.984 13.4261 5.924 13.5461 5.804C13.6741 5.676 13.8301 5.528 14.0141 5.36C14.2061 5.192 14.4061 5.048 14.6141 4.928C14.8221 4.8 15.0141 4.736 15.1901 4.736C15.2781 4.736 15.3341 4.768 15.3581 4.832C15.3821 4.888 15.3941 4.952 15.3941 5.024V5.132C15.3541 5.428 15.2501 5.748 15.0821 6.092C14.9221 6.436 14.7141 6.764 14.4581 7.076C14.2101 7.38 13.9301 7.628 13.6181 7.82C13.3141 8.012 12.9941 8.108 12.6581 8.108ZM12.8501 7.904C12.9781 7.904 13.1141 7.856 13.2581 7.76C13.4101 7.656 13.5261 7.564 13.6061 7.484C13.7021 7.396 13.8181 7.26 13.9541 7.076C14.0901 6.884 14.2221 6.676 14.3501 6.452C14.4781 6.228 14.5861 6.012 14.6741 5.804C14.7621 5.596 14.8061 5.428 14.8061 5.3C14.8061 5.26 14.7981 5.224 14.7821 5.192C14.7661 5.16 14.7381 5.144 14.6981 5.144C14.6261 5.144 14.5301 5.188 14.4101 5.276C14.2981 5.364 14.1741 5.472 14.0381 5.6C13.9101 5.72 13.7901 5.84 13.6781 5.96C13.5741 6.072 13.4981 6.156 13.4501 6.212C13.3621 6.308 13.2501 6.448 13.1141 6.632C12.9781 6.816 12.8541 7.004 12.7421 7.196C12.6381 7.38 12.5861 7.536 12.5861 7.664C12.5861 7.824 12.6741 7.904 12.8501 7.904ZM15.8808 8.108C15.7768 8.108 15.6528 8.088 15.5088 8.048C15.3648 8.016 15.2928 7.928 15.2928 7.784C15.2928 7.728 15.3048 7.664 15.3288 7.592C15.3528 7.52 15.3768 7.456 15.4008 7.4C15.4808 7.192 15.5648 6.98 15.6528 6.764C15.7408 6.548 15.8328 6.328 15.9288 6.104C15.8248 6.224 15.7248 6.336 15.6288 6.44C15.5408 6.536 15.4768 6.608 15.4368 6.656C15.4128 6.688 15.3928 6.704 15.3768 6.704C15.3608 6.704 15.3528 6.684 15.3528 6.644C15.3528 6.58 15.3728 6.52 15.4128 6.464C15.5248 6.32 15.6528 6.168 15.7968 6.008C15.9408 5.848 16.0808 5.68 16.2168 5.504C16.5528 4.8 16.9288 4.12 17.3448 3.464C17.7608 2.8 18.2288 2.212 18.7488 1.7C18.9088 1.548 19.0888 1.392 19.2888 1.232C19.4888 1.072 19.7008 0.935999 19.9248 0.823999C20.1568 0.711999 20.3848 0.655999 20.6088 0.655999C20.7288 0.655999 20.8368 0.687999 20.9328 0.752C21.0368 0.816 21.0928 0.916 21.1008 1.052V1.4C21.1008 1.432 21.0768 1.448 21.0287 1.448C21.0048 1.448 20.9928 1.44 20.9928 1.424C20.9928 1.296 20.9368 1.212 20.8248 1.172C20.7128 1.124 20.6008 1.1 20.4888 1.1C20.0488 1.1 19.6528 1.216 19.3008 1.448C18.9488 1.672 18.6368 1.968 18.3648 2.336C18.0928 2.696 17.8488 3.096 17.6328 3.536C17.4168 3.968 17.2208 4.396 17.0448 4.82C16.8768 5.236 16.7168 5.608 16.5648 5.936C16.5648 5.936 16.5648 5.944 16.5648 5.96C16.5648 5.976 16.5688 5.984 16.5768 5.984C16.5848 5.984 16.6488 5.924 16.7688 5.804C16.8968 5.676 17.0528 5.528 17.2368 5.36C17.4288 5.192 17.6288 5.048 17.8368 4.928C18.0448 4.8 18.2368 4.736 18.4128 4.736C18.5008 4.736 18.5568 4.768 18.5808 4.832C18.6048 4.888 18.6168 4.952 18.6168 5.024V5.132C18.5768 5.428 18.4728 5.748 18.3048 6.092C18.1448 6.436 17.9368 6.764 17.6808 7.076C17.4328 7.38 17.1528 7.628 16.8408 7.82C16.5368 8.012 16.2168 8.108 15.8808 8.108ZM16.0728 7.904C16.2008 7.904 16.3368 7.856 16.4808 7.76C16.6328 7.656 16.7488 7.564 16.8288 7.484C16.9248 7.396 17.0408 7.26 17.1768 7.076C17.3128 6.884 17.4448 6.676 17.5728 6.452C17.7008 6.228 17.8088 6.012 17.8968 5.804C17.9848 5.596 18.0288 5.428 18.0288 5.3C18.0288 5.26 18.0208 5.224 18.0048 5.192C17.9888 5.16 17.9608 5.144 17.9208 5.144C17.8488 5.144 17.7528 5.188 17.6328 5.276C17.5208 5.364 17.3968 5.472 17.2608 5.6C17.1328 5.72 17.0128 5.84 16.9008 5.96C16.7968 6.072 16.7208 6.156 16.6728 6.212C16.5848 6.308 16.4728 6.448 16.3368 6.632C16.2008 6.816 16.0768 7.004 15.9648 7.196C15.8608 7.38 15.8088 7.536 15.8088 7.664C15.8088 7.824 15.8968 7.904 16.0728 7.904Z" fill="black"/>
</svg>
